<?xml version="1.0" encoding="UTF-8"?>
<svg width="15px" height="16px" viewBox="0 0 15 16" version="1.1" xmlns="http://www.w3.org/2000/svg" xmlns:xlink="http://www.w3.org/1999/xlink">
    <!-- Generator: Sketch 49.2 (51160) - http://www.bohemiancoding.com/sketch -->
    <title>Shape</title>
    <desc>Created with Sketch.</desc>
    <defs></defs>
    <g id="Home" stroke="none" stroke-width="1" fill="none" fill-rule="evenodd">
        <g id="MI_Home_Final" transform="translate(-261.000000, -3435.000000)" fill="#DF1995" fill-rule="nonzero">
            <g id="Events" transform="translate(259.000000, 3073.000000)">
                <g id="Group-4-Copy-2" transform="translate(2.000000, 80.000000)">
                    <g id="card-1-copy" transform="translate(0.000000, 241.000000)">
                        <path d="M11.2,42.6 L12.8,42.6 C13.6836556,42.6 14.4,43.3163444 14.4,44.2 L14.4,55.4 C14.4,56.2836556 13.6836556,57 12.8,57 L1.6,57 C0.7163444,57 0,56.2836556 0,55.4 L0,44.2 C0,43.32 0.72,42.6 1.6,42.6 L3.2,42.6 L3.2,41.8 C3.2,41.3581722 3.5581722,41 4,41 C4.4418278,41 4.8,41.3581722 4.8,41.8 L4.8,42.6 L9.6,42.6 L9.6,41.8 C9.6,41.3581722 9.9581722,41 10.4,41 C10.8418278,41 11.2,41.3581722 11.2,41.8 L11.2,42.6 Z M9.6,44.2 L4.8,44.2 L4.8,45 C4.8,45.4418278 4.4418278,45.8 4,45.8 C3.5581722,45.8 3.2,45.4418278 3.2,45 L3.2,44.2 L1.6,44.2 L1.6,47.4 L12.8,47.4 L12.8,44.2 L11.2,44.2 L11.2,45 C11.2,45.4418278 10.8418278,45.8 10.4,45.8 C9.9581722,45.8 9.6,45.4418278 9.6,45 L9.6,44.2 Z M12.8,49 L1.6,49 L1.6,55.4 L12.8,55.4 L12.8,49 Z" id="Shape"></path>
                    </g>
                </g>
            </g>
        </g>
    </g>
</svg>