<?xml version="1.0" encoding="UTF-8"?>
<svg width="24px" height="20px" viewBox="0 0 24 20" version="1.1" xmlns="http://www.w3.org/2000/svg" xmlns:xlink="http://www.w3.org/1999/xlink">
    <!-- Generator: Sketch 49.3 (51167) - http://www.bohemiancoding.com/sketch -->
    <title>M_cat_tick</title>
    <desc>Created with Sketch.</desc>
    <defs>
        <path d="M14.8086957,18.1652174 C15.0434783,18.4 15.3826087,18.5565217 15.7217391,18.5565217 C16.0608696,18.5565217 16.4,18.426087 16.6347826,18.1652174 L22.5565217,12.2434783 C23.0782609,11.7217391 23.0782609,10.9130435 22.5565217,10.3913043 C22.0347826,9.86956522 21.226087,9.86956522 20.7043478,10.3913043 L15.7217391,15.4 L13.2434783,12.9217391 C12.7217391,12.4 11.9130435,12.4 11.3913043,12.9217391 C10.8695652,13.4434783 10.8695652,14.2521739 11.3913043,14.773913 L14.8086957,18.1652174 Z" id="path-1"></path>
    </defs>
    <g id="cat_tick" stroke="none" stroke-width="1" fill="none" fill-rule="evenodd">
        <path d="M21.5115039,14.4392662 L20.2835099,14.0842472 C20.4171218,13.8050295 20.5310637,13.5150174 20.628454,13.2170893 L21.3284772,13.488391 C21.3596613,13.4934284 21.3903657,13.4951076 21.42107,13.4951076 C21.7010073,13.4951076 21.9471218,13.2924109 21.9924587,13.0071963 C22.0433127,12.6912774 21.8279026,12.3935892 21.5119836,12.342975 L20.9047931,12.0870255 C20.9719589,11.6729966 21.0072209,11.2455345 21.0072209,10.805359 C21.0072209,9.16339613 19.9131387,5.52157296 19.4660067,4.39462755 C19.1227417,3.53058809 18.7780375,2.96735526 18.3791209,2.31488793 C18.1934555,2.01168252 17.9943571,1.68616849 17.7760684,1.29660711 C17.6793976,1.12437492 17.502128,1.01331155 17.3049486,1.00155754 C17.1012924,0.986685127 16.9185056,1.07927792 16.801925,1.23831683 C16.0772545,2.23117061 14.9529478,3.33724667 14.4978998,3.33724667 C14.3119946,3.33724667 13.9696891,3.29502819 13.5731712,3.24609314 C12.8722486,3.15973717 11.9990938,3.05179221 11.0933156,3.05179221 C10.3470561,3.05179221 9.62526414,3.14630402 8.98814898,3.22954158 C8.54605439,3.2873521 8.16440897,3.33724667 7.90078338,3.33724667 C6.94511065,3.33724667 5.85150823,1.87063444 5.54350527,1.35681641 C5.43939835,1.18338484 5.25253363,1.07615951 5.04983697,1.07496012 C4.83850472,1.07400061 4.65931609,1.1773879 4.55281039,1.34962008 C3.87011847,2.45353724 3.41938828,3.18276543 2.92907827,4.45867489 C2.47882783,5.63023756 1.42360585,9.20273608 1.42360585,10.8051191 C1.42360585,11.2213069 1.45622922,11.6259806 1.51619864,12.01938 L0.489222165,12.3427351 C0.17330324,12.3928695 -0.0421069303,12.6907976 0.00850726343,13.0069564 C0.0538441479,13.2919312 0.300438419,13.4948677 0.580135812,13.4948677 C0.610360401,13.4948677 0.641304624,13.4929487 0.672488725,13.4881511 L1.78102362,13.1518426 C1.87553543,13.4502504 1.98707856,13.7402626 2.11757202,14.0201998 L0.488262654,14.4392662 C0.172343729,14.4898804 -0.0430664411,14.7873287 0.00730787495,15.1039673 C0.0528846371,15.3887021 0.29923903,15.5918785 0.578936423,15.5918785 C0.609400891,15.5918785 0.640345113,15.5894797 0.671529214,15.5851619 L2.73501721,15.0960513 C4.36858432,17.4456533 7.41287215,18.891876 11.2144539,18.891876 C14.9824527,18.891876 18.0070706,17.4703607 19.6514322,15.15746 L21.3287171,15.5846822 C21.3599012,15.5897196 21.3906055,15.5916386 21.4213099,15.5916386 C21.7012471,15.5916386 21.9473617,15.3884622 21.9926985,15.1037274 C22.0430729,14.7873287 21.8274228,14.4898804 21.5115039,14.4392662 Z M11.214214,17.7318274 C8.42851431,17.7318274 5.62770234,16.8301272 4.00157144,14.892635 L4.51059191,14.8115564 C4.82675072,14.7609422 5.04192101,14.4637337 4.99130682,14.1470951 C4.94069262,13.8311762 4.6430044,13.615766 4.32756523,13.6663802 L3.28961444,13.8326155 C3.14688722,13.5596347 3.02430971,13.2717814 2.92236169,12.9688159 L4.51059191,12.7152652 C4.82675072,12.6644111 5.04192101,12.3672026 4.99130682,12.050804 C4.94069262,11.7351249 4.6430044,11.5194749 4.32756523,11.5698492 L2.65633733,11.8373128 C2.60956118,11.5072411 2.58197524,11.1644559 2.58197524,10.805359 C2.58197524,9.50450222 3.50862278,6.18027711 4.01044692,4.87438294 C4.34819471,3.99523118 4.65979584,3.40705107 5.07670328,2.71188551 C5.67159996,3.46774013 6.70187466,4.49657557 7.89934412,4.49657557 C8.23853118,4.49657557 8.65471898,4.44212333 9.13711303,4.37927537 C9.73872629,4.30059549 10.4209385,4.21136099 11.0921162,4.21136099 C11.9266507,4.21136099 12.7599859,4.31402864 13.4299643,4.39654657 C13.8823736,4.45219819 14.2395515,4.49657557 14.4964605,4.49657557 C15.4341424,4.49657557 16.5200687,3.41448728 17.1991625,2.60801847 C17.2641694,2.71548368 17.3272572,2.81911084 17.3893855,2.92009935 C17.7753487,3.55217708 18.0809529,4.05112269 18.3872767,4.82232948 C18.8864622,6.08096775 19.8464527,9.47283836 19.8464527,10.8051191 C19.8464527,11.1889234 19.8155085,11.5535375 19.7620158,11.9037589 L17.6714817,11.5693694 C17.3524443,11.5177957 17.0578745,11.7341654 17.0072603,12.0503242 C16.9566461,12.3662431 17.1722962,12.6636915 17.4879752,12.7145455 L19.4827982,13.033343 C19.3777317,13.3351091 19.2529953,13.6234421 19.1069098,13.8949837 L17.6714817,13.6654207 C17.3519646,13.6145667 17.0576347,13.8302167 17.0070205,14.1461356 C16.9564063,14.4620545 17.1720563,14.7597428 17.4874955,14.810357 L18.3736037,14.9523646 C16.7414759,16.8483579 13.9706486,17.7318274 11.214214,17.7318274 Z M7.51290115,10.8353437 C8.0954192,10.8353437 8.56764338,10.3631195 8.56764338,9.78060144 C8.56764338,9.1980834 8.0954192,8.72585922 7.51290115,8.72585922 C6.9303831,8.72585922 6.45815892,9.1980834 6.45815892,9.78060144 C6.45815892,10.3631195 6.9303831,10.8353437 7.51290115,10.8353437 Z M14.9164863,10.8353437 C15.4990044,10.8353437 15.9712286,10.3631195 15.9712286,9.78060144 C15.9712286,9.1980834 15.4990044,8.72585922 14.9164863,8.72585922 C14.3339683,8.72585922 13.8617441,9.1980834 13.8617441,9.78060144 C13.8617441,10.3631195 14.3339683,10.8353437 14.9164863,10.8353437 Z M9.28127952,12.4278917 C9.28127952,13.4277019 11.0913966,14.2389683 11.0913966,14.2389683 C11.0913966,14.2389683 12.9024732,13.4277019 12.9024732,12.4278917 C12.9024732,11.4280815 9.28127952,11.4280815 9.28127952,12.4278917 Z" id="Cat" fill="#BA9CC5" fill-rule="nonzero"></path>
        <g id="Tick-Copy" fill-rule="nonzero">
            <use fill="#84BD00" fill-rule="evenodd" xlink:href="#path-1"></use>
            <path stroke="#470A68" stroke-width="1" d="M14.4558748,18.5195029 L11.037751,15.1274664 C10.3207497,14.4104652 10.3207497,13.285187 11.037751,12.5681857 C11.7547522,11.8511845 12.8800304,11.8511845 13.5970317,12.5681857 L15.7208149,14.691969 L20.3507944,10.037751 C21.0677957,9.32074968 22.1930739,9.32074968 22.9100751,10.037751 C23.6270764,10.7547522 23.6270764,11.8800304 22.9100751,12.5970317 L17.0064297,18.4996998 C16.6815565,18.86067 16.2115123,19.0565217 15.7217391,19.0565217 C15.2559508,19.0565217 14.7892422,18.8524859 14.4558748,18.5195029 Z"></path>
        </g>
    </g>
</svg>