<?xml version="1.0" encoding="UTF-8"?>
<svg width="24px" height="20px" viewBox="0 0 24 20" version="1.1" xmlns="http://www.w3.org/2000/svg" xmlns:xlink="http://www.w3.org/1999/xlink">
    <!-- Generator: Sketch 49.3 (51167) - http://www.bohemiancoding.com/sketch -->
    <title>M_child_tick</title>
    <desc>Created with Sketch.</desc>
    <defs>
        <path d="M14.8086957,18.1652174 C15.0434783,18.4 15.3826087,18.5565217 15.7217391,18.5565217 C16.0608696,18.5565217 16.4,18.426087 16.6347826,18.1652174 L22.5565217,12.2434783 C23.0782609,11.7217391 23.0782609,10.9130435 22.5565217,10.3913043 C22.0347826,9.86956522 21.226087,9.86956522 20.7043478,10.3913043 L15.7217391,15.4 L13.2434783,12.9217391 C12.7217391,12.4 11.9130435,12.4 11.3913043,12.9217391 C10.8695652,13.4434783 10.8695652,14.2521739 11.3913043,14.773913 L14.8086957,18.1652174 Z" id="path-1"></path>
    </defs>
    <g id="child_tick" stroke="none" stroke-width="1" fill="none" fill-rule="evenodd">
        <path d="M10.961882,14.8633771 C10.3411412,14.8633771 9.71050413,14.7406639 9.10485503,14.4811353 L9.39728854,13.7987905 C11.4180981,14.6652051 13.7677098,13.7255584 14.6338771,11.7047488 L15.316222,11.9971823 C14.5482747,13.7883994 12.7976322,14.8633771 10.961882,14.8633771 Z M10.9205653,19 C10.9203179,19 10.9203179,19 10.9198231,19 C8.01478562,18.9997526 5.24458426,17.5558931 3.57459595,15.2013332 C3.43035844,15.2320115 3.28364687,15.2471033 3.13569827,15.2471033 C2.25716072,15.2471033 1.47906986,14.7201292 1.15249437,13.9044327 C0.762335619,12.9279225 1.14655664,11.8304309 2.01173429,11.2955398 C1.40954887,7.20246031 3.68939218,3.19894165 7.57415611,1.645234 C8.64468048,1.21722218 9.76740744,1 10.9106691,1 C13.8157065,1 16.5859079,2.44385953 18.2561436,4.79866676 C18.4003811,4.76798845 18.5470927,4.75289671 18.6950413,4.75289671 C19.5735788,4.75289671 20.3516697,5.2798708 20.6782452,6.09556731 C21.0684039,7.07207752 20.6841829,8.1695691 19.8190053,8.70446017 C20.4206959,12.7972923 18.1411,16.8010583 14.256336,18.354766 C13.1860591,18.7830252 12.0635795,19 10.9205653,19 Z M4.04714079,13.6543055 L4.34773868,14.1332829 C5.75300293,16.3720569 8.2710979,17.7629716 10.9198231,17.763219 C10.9200705,17.763219 10.9203179,17.763219 10.9203179,17.763219 C11.9052399,17.763219 12.8733383,17.5759329 13.7969037,17.2065563 C17.2801282,15.8136623 19.2672906,12.1372139 18.5218573,8.46497148 L18.4095351,7.91177239 L18.9503639,7.74947426 C18.9765889,7.74155728 19.0033087,7.73314549 19.0292863,7.72275445 C19.4889661,7.53893203 19.7138579,7.01517421 19.529788,6.55524706 C19.3924779,6.21209539 19.0649128,5.9904199 18.6952887,5.9904199 C18.5814821,5.9904199 18.4694073,6.0121916 18.3617858,6.05499278 C18.3367979,6.06513642 18.3118099,6.07725929 18.2870693,6.08987698 L17.7833514,6.34643667 L17.4827535,5.86745928 C16.0772418,3.62843791 13.5591468,2.23752319 10.9106691,2.23752319 C9.92549966,2.23752319 8.95715385,2.42480929 8.03358845,2.79418597 C4.55036393,4.18707993 2.56320154,7.86352828 3.30863484,11.5357707 L3.42095702,12.0889698 L2.88012821,12.251268 C2.85390321,12.2591849 2.8271834,12.2675967 2.8012058,12.2779878 C2.34152605,12.4618102 2.11663429,12.985568 2.30070412,13.4454952 C2.43801427,13.7886468 2.76557938,14.0103223 3.13520346,14.0103223 C3.24901007,14.0103223 3.36108485,13.9885506 3.46870632,13.9457494 C3.49369429,13.9356058 3.51868226,13.9234829 3.54342283,13.9108652 L4.04714079,13.6543055 Z M8.47941348,11.8754587 C8.97705047,11.8754587 9.38046496,11.4720442 9.38046496,10.9744073 C9.38046496,10.4767703 8.97705047,10.0733558 8.47941348,10.0733558 C7.9817765,10.0733558 7.57836201,10.4767703 7.57836201,10.9744073 C7.57836201,11.4720442 7.9817765,11.8754587 8.47941348,11.8754587 Z M12.8953574,10.1092296 C13.3929944,10.1092296 13.7964089,9.70581512 13.7964089,9.20817813 C13.7964089,8.71054114 13.3929944,8.30712666 12.8953574,8.30712666 C12.3977204,8.30712666 11.9943059,8.71054114 11.9943059,9.20817813 C11.9943059,9.70581512 12.3977204,10.1092296 12.8953574,10.1092296 Z" id="Child" fill="#BA9CC5" fill-rule="nonzero"></path>
        <g id="Tick-Copy" fill-rule="nonzero">
            <use fill="#84BD00" fill-rule="evenodd" xlink:href="#path-1"></use>
            <path stroke="#470A68" stroke-width="1" d="M14.4558748,18.5195029 L11.037751,15.1274664 C10.3207497,14.4104652 10.3207497,13.285187 11.037751,12.5681857 C11.7547522,11.8511845 12.8800304,11.8511845 13.5970317,12.5681857 L15.7208149,14.691969 L20.3507944,10.037751 C21.0677957,9.32074968 22.1930739,9.32074968 22.9100751,10.037751 C23.6270764,10.7547522 23.6270764,11.8800304 22.9100751,12.5970317 L17.0064297,18.4996998 C16.6815565,18.86067 16.2115123,19.0565217 15.7217391,19.0565217 C15.2559508,19.0565217 14.7892422,18.8524859 14.4558748,18.5195029 Z"></path>
        </g>
    </g>
</svg>