<?xml version="1.0" encoding="UTF-8"?>
<svg width="24px" height="20px" viewBox="0 0 24 20" version="1.1" xmlns="http://www.w3.org/2000/svg" xmlns:xlink="http://www.w3.org/1999/xlink">
    <!-- Generator: Sketch 49.3 (51167) - http://www.bohemiancoding.com/sketch -->
    <title>M_child_x</title>
    <desc>Created with Sketch.</desc>
    <defs></defs>
    <g id="child_x" stroke="none" stroke-width="1" fill="none" fill-rule="evenodd">
        <path d="M10.961882,14.8633771 C10.3411412,14.8633771 9.71050413,14.7406639 9.10485503,14.4811353 L9.39728854,13.7987905 C11.4180981,14.6652051 13.7677098,13.7255584 14.6338771,11.7047488 L15.316222,11.9971823 C14.5482747,13.7883994 12.7976322,14.8633771 10.961882,14.8633771 Z M10.9205653,19 C10.9203179,19 10.9203179,19 10.9198231,19 C8.01478562,18.9997526 5.24458426,17.5558931 3.57459595,15.2013332 C3.43035844,15.2320115 3.28364687,15.2471033 3.13569827,15.2471033 C2.25716072,15.2471033 1.47906986,14.7201292 1.15249437,13.9044327 C0.762335619,12.9279225 1.14655664,11.8304309 2.01173429,11.2955398 C1.40954887,7.20246031 3.68939218,3.19894165 7.57415611,1.645234 C8.64468048,1.21722218 9.76740744,1 10.9106691,1 C13.8157065,1 16.5859079,2.44385953 18.2561436,4.79866676 C18.4003811,4.76798845 18.5470927,4.75289671 18.6950413,4.75289671 C19.5735788,4.75289671 20.3516697,5.2798708 20.6782452,6.09556731 C21.0684039,7.07207752 20.6841829,8.1695691 19.8190053,8.70446017 C20.4206959,12.7972923 18.1411,16.8010583 14.256336,18.354766 C13.1860591,18.7830252 12.0635795,19 10.9205653,19 Z M4.04714079,13.6543055 L4.34773868,14.1332829 C5.75300293,16.3720569 8.2710979,17.7629716 10.9198231,17.763219 C10.9200705,17.763219 10.9203179,17.763219 10.9203179,17.763219 C11.9052399,17.763219 12.8733383,17.5759329 13.7969037,17.2065563 C17.2801282,15.8136623 19.2672906,12.1372139 18.5218573,8.46497148 L18.4095351,7.91177239 L18.9503639,7.74947426 C18.9765889,7.74155728 19.0033087,7.73314549 19.0292863,7.72275445 C19.4889661,7.53893203 19.7138579,7.01517421 19.529788,6.55524706 C19.3924779,6.21209539 19.0649128,5.9904199 18.6952887,5.9904199 C18.5814821,5.9904199 18.4694073,6.0121916 18.3617858,6.05499278 C18.3367979,6.06513642 18.3118099,6.07725929 18.2870693,6.08987698 L17.7833514,6.34643667 L17.4827535,5.86745928 C16.0772418,3.62843791 13.5591468,2.23752319 10.9106691,2.23752319 C9.92549966,2.23752319 8.95715385,2.42480929 8.03358845,2.79418597 C4.55036393,4.18707993 2.56320154,7.86352828 3.30863484,11.5357707 L3.42095702,12.0889698 L2.88012821,12.251268 C2.85390321,12.2591849 2.8271834,12.2675967 2.8012058,12.2779878 C2.34152605,12.4618102 2.11663429,12.985568 2.30070412,13.4454952 C2.43801427,13.7886468 2.76557938,14.0103223 3.13520346,14.0103223 C3.24901007,14.0103223 3.36108485,13.9885506 3.46870632,13.9457494 C3.49369429,13.9356058 3.51868226,13.9234829 3.54342283,13.9108652 L4.04714079,13.6543055 Z M8.47941348,11.8754587 C8.97705047,11.8754587 9.38046496,11.4720442 9.38046496,10.9744073 C9.38046496,10.4767703 8.97705047,10.0733558 8.47941348,10.0733558 C7.9817765,10.0733558 7.57836201,10.4767703 7.57836201,10.9744073 C7.57836201,11.4720442 7.9817765,11.8754587 8.47941348,11.8754587 Z M12.8953574,10.1092296 C13.3929944,10.1092296 13.7964089,9.70581512 13.7964089,9.20817813 C13.7964089,8.71054114 13.3929944,8.30712666 12.8953574,8.30712666 C12.3977204,8.30712666 11.9943059,8.71054114 11.9943059,9.20817813 C11.9943059,9.70581512 12.3977204,10.1092296 12.8953574,10.1092296 Z" id="Child" fill="#BA9CC5" fill-rule="nonzero"></path>
        <path d="M21.6578947,18.9736842 C22,18.9736842 22.3421053,18.8421053 22.5789474,18.5789474 C23.1052632,18.0526316 23.1052632,17.2368421 22.5789474,16.7105263 L19.8684211,14 L22.6052632,11.2631579 C23.1315789,10.7368421 23.1315789,9.92105263 22.6052632,9.39473684 C22.0789474,8.86842105 21.2631579,8.86842105 20.7368421,9.39473684 L18,12.1315789 L15.2631579,9.39473684 C14.7368421,8.86842105 13.9210526,8.86842105 13.3947368,9.39473684 C12.8684211,9.92105263 12.8684211,10.7368421 13.3947368,11.2631579 L16.1315789,14 L13.3947368,16.7368421 C12.8684211,17.2631579 12.8684211,18.0789474 13.3947368,18.6052632 C13.6578947,18.8684211 14,19 14.3157895,19 C14.6315789,19 15,18.8684211 15.2368421,18.6052632 L18,15.8684211 L20.7368421,18.6052632 C21,18.8421053 21.3157895,18.9736842 21.6578947,18.9736842 Z" id="x-copy" stroke="#470A68" fill="#DF1995" fill-rule="nonzero"></path>
    </g>
</svg>