<?xml version="1.0" encoding="UTF-8"?>
<svg width="24px" height="20px" viewBox="0 0 24 20" version="1.1" xmlns="http://www.w3.org/2000/svg" xmlns:xlink="http://www.w3.org/1999/xlink">
    <!-- Generator: Sketch 49.3 (51167) - http://www.bohemiancoding.com/sketch -->
    <title>M_dog_x</title>
    <desc>Created with Sketch.</desc>
    <defs></defs>
    <g id="dog_x" stroke="none" stroke-width="1" fill="none" fill-rule="evenodd">
        <path d="M22,7.69306 C20.00174,1.39292 14.37788,1.02574 12.33166,1.11066 C11.90706,1.0396 11.46596,1 11.00418,1 C10.52656,1 10.08282,1.03982 9.66944,1.11066 C7.62366,1.02552 1.9987,1.39204 0,7.69306 C0,7.69306 0.54318,9.5844 3.24038,9.72916 C3.06988,10.48816 2.9491,11.20712 2.9491,11.7008 C2.9491,15.67092 6.30344,18.4438 11.10604,18.4438 C15.90842,18.4438 19.26254,15.67092 19.26254,11.7008 C19.26254,11.20118 19.14044,10.47848 18.96796,9.71816 C21.48894,9.49178 22,7.69306 22,7.69306 Z M11.1056,17.39946 C7.5658,17.39946 3.99366,15.63748 3.99366,11.70146 C3.99366,11.10526 4.22994,9.99338 4.51154,8.9376 C5.63068,7.44358 7.30884,4.2329 8.77932,2.44342 C9.40698,2.19878 10.13738,2.04566 11.00396,2.04566 C11.84546,2.04566 12.56442,2.18206 13.19098,2.40712 C14.8104,4.36028 16.68832,8.06772 17.79602,9.3171 C18.03274,10.2488 18.21688,11.17258 18.21688,11.70146 C18.2171,15.63748 14.6454,17.39946 11.1056,17.39946 Z M8.0377,9.44162 C8.52055151,9.44162 8.91198,9.05019151 8.91198,8.56734 C8.91198,8.08448849 8.52055151,7.69306 8.0377,7.69306 C7.55484849,7.69306 7.16342,8.08448849 7.16342,8.56734 C7.16342,9.05019151 7.55484849,9.44162 8.0377,9.44162 Z M14.17306,9.44162 C14.6559115,9.44162 15.04734,9.05019151 15.04734,8.56734 C15.04734,8.08448849 14.6559115,7.69306 14.17306,7.69306 C13.6902085,7.69306 13.29878,8.08448849 13.29878,8.56734 C13.29878,9.05019151 13.6902085,9.44162 14.17306,9.44162 Z M7.8628,12.50182 C7.8628,14.23652 9.65932,15.64386 11.00374,15.64386 C12.34816,15.64386 14.14534,14.23652 14.14534,12.50182 C14.14534,10.76734 7.8628,10.76734 7.8628,12.50182 Z" id="Dog" fill="#BA9CC5" fill-rule="nonzero"></path>
        <path d="M21.6578947,18.9736842 C22,18.9736842 22.3421053,18.8421053 22.5789474,18.5789474 C23.1052632,18.0526316 23.1052632,17.2368421 22.5789474,16.7105263 L19.8684211,14 L22.6052632,11.2631579 C23.1315789,10.7368421 23.1315789,9.92105263 22.6052632,9.39473684 C22.0789474,8.86842105 21.2631579,8.86842105 20.7368421,9.39473684 L18,12.1315789 L15.2631579,9.39473684 C14.7368421,8.86842105 13.9210526,8.86842105 13.3947368,9.39473684 C12.8684211,9.92105263 12.8684211,10.7368421 13.3947368,11.2631579 L16.1315789,14 L13.3947368,16.7368421 C12.8684211,17.2631579 12.8684211,18.0789474 13.3947368,18.6052632 C13.6578947,18.8684211 14,19 14.3157895,19 C14.6315789,19 15,18.8684211 15.2368421,18.6052632 L18,15.8684211 L20.7368421,18.6052632 C21,18.8421053 21.3157895,18.9736842 21.6578947,18.9736842 Z" id="x" stroke="#470A68" fill="#DF1995" fill-rule="nonzero"></path>
    </g>
</svg>