<?xml version="1.0" encoding="UTF-8"?>
<svg width="24px" height="20px" viewBox="0 0 24 20" version="1.1" xmlns="http://www.w3.org/2000/svg" xmlns:xlink="http://www.w3.org/1999/xlink">
    <!-- Generator: Sketch 49.3 (51167) - http://www.bohemiancoding.com/sketch -->
    <title>M_dog_tick</title>
    <desc>Created with Sketch.</desc>
    <defs>
        <path d="M14.8086957,18.1652174 C15.0434783,18.4 15.3826087,18.5565217 15.7217391,18.5565217 C16.0608696,18.5565217 16.4,18.426087 16.6347826,18.1652174 L22.5565217,12.2434783 C23.0782609,11.7217391 23.0782609,10.9130435 22.5565217,10.3913043 C22.0347826,9.86956522 21.226087,9.86956522 20.7043478,10.3913043 L15.7217391,15.4 L13.2434783,12.9217391 C12.7217391,12.4 11.9130435,12.4 11.3913043,12.9217391 C10.8695652,13.4434783 10.8695652,14.2521739 11.3913043,14.773913 L14.8086957,18.1652174 Z" id="path-1"></path>
    </defs>
    <g id="dog_tick" stroke="none" stroke-width="1" fill="none" fill-rule="evenodd">
        <path d="M22,7.69306 C20.00174,1.39292 14.37788,1.02574 12.33166,1.11066 C11.90706,1.0396 11.46596,1 11.00418,1 C10.52656,1 10.08282,1.03982 9.66944,1.11066 C7.62366,1.02552 1.9987,1.39204 0,7.69306 C0,7.69306 0.54318,9.5844 3.24038,9.72916 C3.06988,10.48816 2.9491,11.20712 2.9491,11.7008 C2.9491,15.67092 6.30344,18.4438 11.10604,18.4438 C15.90842,18.4438 19.26254,15.67092 19.26254,11.7008 C19.26254,11.20118 19.14044,10.47848 18.96796,9.71816 C21.48894,9.49178 22,7.69306 22,7.69306 Z M11.1056,17.39946 C7.5658,17.39946 3.99366,15.63748 3.99366,11.70146 C3.99366,11.10526 4.22994,9.99338 4.51154,8.9376 C5.63068,7.44358 7.30884,4.2329 8.77932,2.44342 C9.40698,2.19878 10.13738,2.04566 11.00396,2.04566 C11.84546,2.04566 12.56442,2.18206 13.19098,2.40712 C14.8104,4.36028 16.68832,8.06772 17.79602,9.3171 C18.03274,10.2488 18.21688,11.17258 18.21688,11.70146 C18.2171,15.63748 14.6454,17.39946 11.1056,17.39946 Z M8.0377,9.44162 C8.52055151,9.44162 8.91198,9.05019151 8.91198,8.56734 C8.91198,8.08448849 8.52055151,7.69306 8.0377,7.69306 C7.55484849,7.69306 7.16342,8.08448849 7.16342,8.56734 C7.16342,9.05019151 7.55484849,9.44162 8.0377,9.44162 Z M14.17306,9.44162 C14.6559115,9.44162 15.04734,9.05019151 15.04734,8.56734 C15.04734,8.08448849 14.6559115,7.69306 14.17306,7.69306 C13.6902085,7.69306 13.29878,8.08448849 13.29878,8.56734 C13.29878,9.05019151 13.6902085,9.44162 14.17306,9.44162 Z M7.8628,12.50182 C7.8628,14.23652 9.65932,15.64386 11.00374,15.64386 C12.34816,15.64386 14.14534,14.23652 14.14534,12.50182 C14.14534,10.76734 7.8628,10.76734 7.8628,12.50182 Z" id="Dog" fill="#BA9CC5" fill-rule="nonzero"></path>
        <g id="Tick-Copy" fill-rule="nonzero">
            <use fill="#84BD00" fill-rule="evenodd" xlink:href="#path-1"></use>
            <path stroke="#470A68" stroke-width="1" d="M14.4558748,18.5195029 L11.037751,15.1274664 C10.3207497,14.4104652 10.3207497,13.285187 11.037751,12.5681857 C11.7547522,11.8511845 12.8800304,11.8511845 13.5970317,12.5681857 L15.7208149,14.691969 L20.3507944,10.037751 C21.0677957,9.32074968 22.1930739,9.32074968 22.9100751,10.037751 C23.6270764,10.7547522 23.6270764,11.8800304 22.9100751,12.5970317 L17.0064297,18.4996998 C16.6815565,18.86067 16.2115123,19.0565217 15.7217391,19.0565217 C15.2559508,19.0565217 14.7892422,18.8524859 14.4558748,18.5195029 Z"></path>
        </g>
    </g>
</svg>