<?xml version="1.0" encoding="UTF-8"?>
<svg width="22px" height="22px" viewBox="0 0 22 22" version="1.1" xmlns="http://www.w3.org/2000/svg" xmlns:xlink="http://www.w3.org/1999/xlink">
    <!-- Generator: Sketch 49.3 (51167) - http://www.bohemiancoding.com/sketch -->
    <title>M_female</title>
    <desc>Created with Sketch.</desc>
    <defs></defs>
    <g id="female" stroke="none" stroke-width="1" fill="none" fill-rule="evenodd">
        <path d="M18,7.02777778 C18,3.14630556 14.8661304,0 11,0 C7.13386957,0 4,3.14630556 4,7.02777778 C4,10.4918611 6.49717391,13.3686667 9.7826087,13.9473889 L9.7826087,16.5 L7.34782609,16.5 C6.67552174,16.5 6.13043478,17.04725 6.13043478,17.7222222 C6.13043478,18.3971944 6.67552174,18.9444444 7.34782609,18.9444444 L9.7826087,18.9444444 L9.7826087,20.7777778 C9.7826087,21.45275 10.3276957,22 11,22 C11.6723043,22 12.2173913,21.45275 12.2173913,20.7777778 L12.2173913,18.9444444 L14.6521739,18.9444444 C15.3244783,18.9444444 15.8695652,18.3971944 15.8695652,17.7222222 C15.8695652,17.04725 15.3244783,16.5 14.6521739,16.5 L12.2173913,16.5 L12.2173913,13.9473889 C15.5028261,13.3686667 18,10.4918611 18,7.02777778 Z M6.43478261,7.02777778 C6.43478261,4.50052778 8.48273913,2.44444444 11,2.44444444 C13.5172609,2.44444444 15.5652174,4.50052778 15.5652174,7.02777778 C15.5652174,9.55502778 13.5172609,11.6111111 11,11.6111111 C8.48273913,11.6111111 6.43478261,9.55502778 6.43478261,7.02777778 Z" fill="#F0BA2C" fill-rule="nonzero"></path>
    </g>
</svg>