<?xml version="1.0" encoding="UTF-8"?>
<svg width="24px" height="20px" viewBox="0 0 24 20" version="1.1" xmlns="http://www.w3.org/2000/svg" xmlns:xlink="http://www.w3.org/1999/xlink">
    <!-- Generator: Sketch 49.3 (51167) - http://www.bohemiancoding.com/sketch -->
    <title>M_flat_x</title>
    <desc>Created with Sketch.</desc>
    <defs></defs>
    <g id="flat_x" stroke="none" stroke-width="1" fill="none" fill-rule="evenodd">
        <path d="M7.84251969,3.20866142 C7.53543307,3.20866142 7.28740157,2.96062992 7.28740157,2.65354331 C7.28740157,2.34645669 7.53543307,2.0984252 7.84251969,2.0984252 L14.5354331,2.0984252 C14.8425197,2.0984252 15.0905512,2.34645669 15.0905512,2.65354331 C15.0905512,2.96062992 14.8425197,3.20866142 14.5354331,3.20866142 L7.84251969,3.20866142 Z M7.84251969,5.38188976 C7.53543307,5.38188976 7.28740157,5.13385827 7.28740157,4.82677165 C7.28740157,4.51968504 7.53543307,4.27165354 7.84251969,4.27165354 L14.5354331,4.27165354 C14.8425197,4.27165354 15.0905512,4.51968504 15.0905512,4.82677165 C15.0905512,5.13385827 14.8425197,5.38188976 14.5354331,5.38188976 L7.84251969,5.38188976 Z M7.84251969,7.55905512 C7.53543307,7.55905512 7.28740157,7.30708661 7.28740157,7.00393701 C7.28740157,6.69685039 7.53543307,6.4488189 7.84251969,6.4488189 L14.5354331,6.4488189 C14.8425197,6.4488189 15.0905512,6.69685039 15.0905512,7.00393701 C15.0905512,7.31102362 14.8425197,7.55905512 14.5354331,7.55905512 L7.84251969,7.55905512 Z M7.84251969,9.73228346 C7.53543307,9.73228346 7.28740157,9.48425197 7.28740157,9.17716535 C7.28740157,8.87007874 7.53543307,8.62204724 7.84251969,8.62204724 L14.5354331,8.62204724 C14.8425197,8.62204724 15.0905512,8.87007874 15.0905512,9.17716535 C15.0905512,9.48425197 14.8425197,9.73228346 14.5354331,9.73228346 L7.84251969,9.73228346 Z M7.84251969,11.9055118 C7.53543307,11.9055118 7.28740157,11.6574803 7.28740157,11.3503937 C7.28740157,11.0433071 7.53543307,10.7952756 7.84251969,10.7952756 L14.5354331,10.7952756 C14.8425197,10.7952756 15.0905512,11.0433071 15.0905512,11.3503937 C15.0905512,11.6574803 14.8425197,11.9055118 14.5354331,11.9055118 L7.84251969,11.9055118 Z M7.84251969,14.0787402 C7.53543307,14.0787402 7.28740157,13.8307087 7.28740157,13.523622 C7.28740157,13.2165354 7.53543307,12.9685039 7.84251969,12.9685039 L14.5354331,12.9685039 C14.8425197,12.9685039 15.0905512,13.2165354 15.0905512,13.523622 C15.0905512,13.8307087 14.8425197,14.0787402 14.5354331,14.0787402 L7.84251969,14.0787402 Z M18.7952756,18.8897638 L17.1850394,18.8897638 L17.1850394,0.55511811 C17.1850394,0.248031496 16.9370079,-4.4408921e-16 16.6299213,-4.4408921e-16 L5.74409449,-4.4408921e-16 C5.43700787,-4.4408921e-16 5.18897638,0.248031496 5.18897638,0.55511811 L5.18897638,18.8897638 L3.58267717,18.8897638 C3.27559055,18.8897638 3.02755906,19.1377953 3.02755906,19.4448819 C3.02755906,19.7519685 3.27559055,20 3.58267717,20 L18.7992126,20 C19.1062992,20 19.3543307,19.7519685 19.3543307,19.4448819 C19.3543307,19.1377953 19.1023622,18.8897638 18.7952756,18.8897638 Z M11.976378,18.8897638 L10.4015748,18.8897638 L10.4015748,16.6377953 L11.976378,16.6377953 L11.976378,18.8897638 Z M16.0787402,18.8897638 L13.0905512,18.8897638 L13.0905512,16.0826772 C13.0905512,15.7755906 12.8425197,15.5275591 12.5354331,15.5275591 L9.84645669,15.5275591 C9.53937008,15.5275591 9.29133858,15.7755906 9.29133858,16.0826772 L9.29133858,18.8897638 L6.30314961,18.8897638 L6.30314961,1.11023622 L16.0787402,1.11023622 L16.0787402,18.8897638 Z" id="Shape" fill="#BA9CC5" fill-rule="nonzero"></path>
        <path d="M21.6578947,18.9736842 C22,18.9736842 22.3421053,18.8421053 22.5789474,18.5789474 C23.1052632,18.0526316 23.1052632,17.2368421 22.5789474,16.7105263 L19.8684211,14 L22.6052632,11.2631579 C23.1315789,10.7368421 23.1315789,9.92105263 22.6052632,9.39473684 C22.0789474,8.86842105 21.2631579,8.86842105 20.7368421,9.39473684 L18,12.1315789 L15.2631579,9.39473684 C14.7368421,8.86842105 13.9210526,8.86842105 13.3947368,9.39473684 C12.8684211,9.92105263 12.8684211,10.7368421 13.3947368,11.2631579 L16.1315789,14 L13.3947368,16.7368421 C12.8684211,17.2631579 12.8684211,18.0789474 13.3947368,18.6052632 C13.6578947,18.8684211 14,19 14.3157895,19 C14.6315789,19 15,18.8684211 15.2368421,18.6052632 L18,15.8684211 L20.7368421,18.6052632 C21,18.8421053 21.3157895,18.9736842 21.6578947,18.9736842 Z" id="x-copy" stroke="#470A68" fill="#DF1995" fill-rule="nonzero"></path>
    </g>
</svg>