<?xml version="1.0" encoding="UTF-8"?>
<svg width="24px" height="20px" viewBox="0 0 24 20" version="1.1" xmlns="http://www.w3.org/2000/svg" xmlns:xlink="http://www.w3.org/1999/xlink">
    <!-- Generator: Sketch 49.3 (51167) - http://www.bohemiancoding.com/sketch -->
    <title>M_flat_tick</title>
    <desc>Created with Sketch.</desc>
    <defs>
        <path d="M14.8086957,18.1652174 C15.0434783,18.4 15.3826087,18.5565217 15.7217391,18.5565217 C16.0608696,18.5565217 16.4,18.426087 16.6347826,18.1652174 L22.5565217,12.2434783 C23.0782609,11.7217391 23.0782609,10.9130435 22.5565217,10.3913043 C22.0347826,9.86956522 21.226087,9.86956522 20.7043478,10.3913043 L15.7217391,15.4 L13.2434783,12.9217391 C12.7217391,12.4 11.9130435,12.4 11.3913043,12.9217391 C10.8695652,13.4434783 10.8695652,14.2521739 11.3913043,14.773913 L14.8086957,18.1652174 Z" id="path-1"></path>
    </defs>
    <g id="flat_tick" stroke="none" stroke-width="1" fill="none" fill-rule="evenodd">
        <path d="M7.84251969,3.20866142 C7.53543307,3.20866142 7.28740157,2.96062992 7.28740157,2.65354331 C7.28740157,2.34645669 7.53543307,2.0984252 7.84251969,2.0984252 L14.5354331,2.0984252 C14.8425197,2.0984252 15.0905512,2.34645669 15.0905512,2.65354331 C15.0905512,2.96062992 14.8425197,3.20866142 14.5354331,3.20866142 L7.84251969,3.20866142 Z M7.84251969,5.38188976 C7.53543307,5.38188976 7.28740157,5.13385827 7.28740157,4.82677165 C7.28740157,4.51968504 7.53543307,4.27165354 7.84251969,4.27165354 L14.5354331,4.27165354 C14.8425197,4.27165354 15.0905512,4.51968504 15.0905512,4.82677165 C15.0905512,5.13385827 14.8425197,5.38188976 14.5354331,5.38188976 L7.84251969,5.38188976 Z M7.84251969,7.55905512 C7.53543307,7.55905512 7.28740157,7.30708661 7.28740157,7.00393701 C7.28740157,6.69685039 7.53543307,6.4488189 7.84251969,6.4488189 L14.5354331,6.4488189 C14.8425197,6.4488189 15.0905512,6.69685039 15.0905512,7.00393701 C15.0905512,7.31102362 14.8425197,7.55905512 14.5354331,7.55905512 L7.84251969,7.55905512 Z M7.84251969,9.73228346 C7.53543307,9.73228346 7.28740157,9.48425197 7.28740157,9.17716535 C7.28740157,8.87007874 7.53543307,8.62204724 7.84251969,8.62204724 L14.5354331,8.62204724 C14.8425197,8.62204724 15.0905512,8.87007874 15.0905512,9.17716535 C15.0905512,9.48425197 14.8425197,9.73228346 14.5354331,9.73228346 L7.84251969,9.73228346 Z M7.84251969,11.9055118 C7.53543307,11.9055118 7.28740157,11.6574803 7.28740157,11.3503937 C7.28740157,11.0433071 7.53543307,10.7952756 7.84251969,10.7952756 L14.5354331,10.7952756 C14.8425197,10.7952756 15.0905512,11.0433071 15.0905512,11.3503937 C15.0905512,11.6574803 14.8425197,11.9055118 14.5354331,11.9055118 L7.84251969,11.9055118 Z M7.84251969,14.0787402 C7.53543307,14.0787402 7.28740157,13.8307087 7.28740157,13.523622 C7.28740157,13.2165354 7.53543307,12.9685039 7.84251969,12.9685039 L14.5354331,12.9685039 C14.8425197,12.9685039 15.0905512,13.2165354 15.0905512,13.523622 C15.0905512,13.8307087 14.8425197,14.0787402 14.5354331,14.0787402 L7.84251969,14.0787402 Z M18.7952756,18.8897638 L17.1850394,18.8897638 L17.1850394,0.55511811 C17.1850394,0.248031496 16.9370079,-4.4408921e-16 16.6299213,-4.4408921e-16 L5.74409449,-4.4408921e-16 C5.43700787,-4.4408921e-16 5.18897638,0.248031496 5.18897638,0.55511811 L5.18897638,18.8897638 L3.58267717,18.8897638 C3.27559055,18.8897638 3.02755906,19.1377953 3.02755906,19.4448819 C3.02755906,19.7519685 3.27559055,20 3.58267717,20 L18.7992126,20 C19.1062992,20 19.3543307,19.7519685 19.3543307,19.4448819 C19.3543307,19.1377953 19.1023622,18.8897638 18.7952756,18.8897638 Z M11.976378,18.8897638 L10.4015748,18.8897638 L10.4015748,16.6377953 L11.976378,16.6377953 L11.976378,18.8897638 Z M16.0787402,18.8897638 L13.0905512,18.8897638 L13.0905512,16.0826772 C13.0905512,15.7755906 12.8425197,15.5275591 12.5354331,15.5275591 L9.84645669,15.5275591 C9.53937008,15.5275591 9.29133858,15.7755906 9.29133858,16.0826772 L9.29133858,18.8897638 L6.30314961,18.8897638 L6.30314961,1.11023622 L16.0787402,1.11023622 L16.0787402,18.8897638 Z" id="Shape" fill="#BA9CC5" fill-rule="nonzero"></path>
        <g id="Tick-Copy" fill-rule="nonzero">
            <use fill="#84BD00" fill-rule="evenodd" xlink:href="#path-1"></use>
            <path stroke="#470A68" stroke-width="1" d="M14.4558748,18.5195029 L11.037751,15.1274664 C10.3207497,14.4104652 10.3207497,13.285187 11.037751,12.5681857 C11.7547522,11.8511845 12.8800304,11.8511845 13.5970317,12.5681857 L15.7208149,14.691969 L20.3507944,10.037751 C21.0677957,9.32074968 22.1930739,9.32074968 22.9100751,10.037751 C23.6270764,10.7547522 23.6270764,11.8800304 22.9100751,12.5970317 L17.0064297,18.4996998 C16.6815565,18.86067 16.2115123,19.0565217 15.7217391,19.0565217 C15.2559508,19.0565217 14.7892422,18.8524859 14.4558748,18.5195029 Z"></path>
        </g>
    </g>
</svg>