<?xml version="1.0" encoding="UTF-8"?>
<svg width="24px" height="20px" viewBox="0 0 24 20" version="1.1" xmlns="http://www.w3.org/2000/svg" xmlns:xlink="http://www.w3.org/1999/xlink">
    <!-- Generator: Sketch 49.3 (51167) - http://www.bohemiancoding.com/sketch -->
    <title>M_garden_x</title>
    <desc>Created with Sketch.</desc>
    <defs></defs>
    <g id="garden_x" stroke="none" stroke-width="1" fill="none" fill-rule="evenodd">
        <path d="M10.2294354,17.2 L10.2294354,13.3182584 C10.2089534,13.2891913 10.1909575,13.2583386 10.1758672,13.2259256 C10.0521278,12.9601405 10.0866418,12.675471 10.2294354,12.4658406 L10.2294354,10.006866 L8.56212122,8.61736887 C8.22010806,8.34718888 8.22010806,7.84542604 8.51936958,7.5366489 C8.81863109,7.22787177 9.37440248,7.22787177 9.71641564,7.49805176 L11.6402397,9.11913172 C11.8112462,9.27352028 11.8967495,9.46650599 11.8967495,9.6594917 L11.8967495,11.4431289 L12.7185277,10.9814792 C13.0668373,10.794442 13.449978,10.9440717 13.6241328,11.2807387 C13.7982876,11.6548131 13.6589638,12.0662949 13.3454851,12.2533321 L11.8967495,13.0671874 L11.8967495,17.2 L13.8669683,17.2 C14.2701357,17.2 14.6,17.605 14.6,18.1 C14.6,18.595 14.2701357,19 13.9036199,19 L7.23303167,19 C6.82986425,19 6.5,18.595 6.5,18.1 C6.5,17.605 6.82986425,17.2 7.23303167,17.2 L10.2294354,17.2 Z M14.6765957,15.4 C14.2553191,15.4 13.9106383,15.0497297 13.9106383,14.6216216 C13.9106383,14.1935135 14.2553191,13.8432432 14.6765957,13.8432432 C16.7829787,13.8432432 18.506383,12.1308108 18.506383,9.99027027 C18.506383,8.16108108 17.2042553,6.56540541 15.3659574,6.21513514 C15.0595745,6.17621622 14.8297872,5.90378378 14.7531915,5.59243243 C14.4085106,3.76324324 12.8382979,2.44 11,2.44 C9.16170213,2.44 7.55319149,3.76324324 7.24680851,5.59243243 C7.20851064,5.90378378 6.94042553,6.1372973 6.63404255,6.21513514 C4.83404255,6.56540541 3.49361702,8.12216216 3.49361702,9.99027027 C3.49361702,12.0918919 5.21702128,13.8432432 7.32340426,13.8432432 C7.74468085,13.8432432 8.0893617,14.1935135 8.0893617,14.6216216 C8.0893617,15.0497297 7.74468085,15.4 7.32340426,15.4 C4.37446809,15.4 2,12.987027 2,10.0291892 C2,7.61621622 3.60851064,5.51459459 5.86808511,4.89189189 C6.51914894,2.59567568 8.58723404,1 11,1 C13.412766,1 15.4808511,2.59567568 16.1319149,4.89189189 C18.3914894,5.55351351 20,7.61621622 20,10.0291892 C20,13.0259459 17.587234,15.4 14.6765957,15.4 Z" id="Garden" fill="#BA9CC5" fill-rule="nonzero"></path>
        <path d="M21.6578947,18.9736842 C22,18.9736842 22.3421053,18.8421053 22.5789474,18.5789474 C23.1052632,18.0526316 23.1052632,17.2368421 22.5789474,16.7105263 L19.8684211,14 L22.6052632,11.2631579 C23.1315789,10.7368421 23.1315789,9.92105263 22.6052632,9.39473684 C22.0789474,8.86842105 21.2631579,8.86842105 20.7368421,9.39473684 L18,12.1315789 L15.2631579,9.39473684 C14.7368421,8.86842105 13.9210526,8.86842105 13.3947368,9.39473684 C12.8684211,9.92105263 12.8684211,10.7368421 13.3947368,11.2631579 L16.1315789,14 L13.3947368,16.7368421 C12.8684211,17.2631579 12.8684211,18.0789474 13.3947368,18.6052632 C13.6578947,18.8684211 14,19 14.3157895,19 C14.6315789,19 15,18.8684211 15.2368421,18.6052632 L18,15.8684211 L20.7368421,18.6052632 C21,18.8421053 21.3157895,18.9736842 21.6578947,18.9736842 Z" id="x-copy" stroke="#470A68" fill="#DF1995" fill-rule="nonzero"></path>
    </g>
</svg>