<?xml version="1.0" encoding="UTF-8"?>
<svg width="24px" height="20px" viewBox="0 0 24 20" version="1.1" xmlns="http://www.w3.org/2000/svg" xmlns:xlink="http://www.w3.org/1999/xlink">
    <!-- Generator: Sketch 49.3 (51167) - http://www.bohemiancoding.com/sketch -->
    <title>M_garden_tick</title>
    <desc>Created with Sketch.</desc>
    <defs>
        <path d="M14.8086957,18.1652174 C15.0434783,18.4 15.3826087,18.5565217 15.7217391,18.5565217 C16.0608696,18.5565217 16.4,18.426087 16.6347826,18.1652174 L22.5565217,12.2434783 C23.0782609,11.7217391 23.0782609,10.9130435 22.5565217,10.3913043 C22.0347826,9.86956522 21.226087,9.86956522 20.7043478,10.3913043 L15.7217391,15.4 L13.2434783,12.9217391 C12.7217391,12.4 11.9130435,12.4 11.3913043,12.9217391 C10.8695652,13.4434783 10.8695652,14.2521739 11.3913043,14.773913 L14.8086957,18.1652174 Z" id="path-1"></path>
    </defs>
    <g id="garden_tick" stroke="none" stroke-width="1" fill="none" fill-rule="evenodd">
        <path d="M10.2294354,17.2 L10.2294354,13.3182584 C10.2089534,13.2891913 10.1909575,13.2583386 10.1758672,13.2259256 C10.0521278,12.9601405 10.0866418,12.675471 10.2294354,12.4658406 L10.2294354,10.006866 L8.56212122,8.61736887 C8.22010806,8.34718888 8.22010806,7.84542604 8.51936958,7.5366489 C8.81863109,7.22787177 9.37440248,7.22787177 9.71641564,7.49805176 L11.6402397,9.11913172 C11.8112462,9.27352028 11.8967495,9.46650599 11.8967495,9.6594917 L11.8967495,11.4431289 L12.7185277,10.9814792 C13.0668373,10.794442 13.449978,10.9440717 13.6241328,11.2807387 C13.7982876,11.6548131 13.6589638,12.0662949 13.3454851,12.2533321 L11.8967495,13.0671874 L11.8967495,17.2 L13.8669683,17.2 C14.2701357,17.2 14.6,17.605 14.6,18.1 C14.6,18.595 14.2701357,19 13.9036199,19 L7.23303167,19 C6.82986425,19 6.5,18.595 6.5,18.1 C6.5,17.605 6.82986425,17.2 7.23303167,17.2 L10.2294354,17.2 Z M14.6765957,15.4 C14.2553191,15.4 13.9106383,15.0497297 13.9106383,14.6216216 C13.9106383,14.1935135 14.2553191,13.8432432 14.6765957,13.8432432 C16.7829787,13.8432432 18.506383,12.1308108 18.506383,9.99027027 C18.506383,8.16108108 17.2042553,6.56540541 15.3659574,6.21513514 C15.0595745,6.17621622 14.8297872,5.90378378 14.7531915,5.59243243 C14.4085106,3.76324324 12.8382979,2.44 11,2.44 C9.16170213,2.44 7.55319149,3.76324324 7.24680851,5.59243243 C7.20851064,5.90378378 6.94042553,6.1372973 6.63404255,6.21513514 C4.83404255,6.56540541 3.49361702,8.12216216 3.49361702,9.99027027 C3.49361702,12.0918919 5.21702128,13.8432432 7.32340426,13.8432432 C7.74468085,13.8432432 8.0893617,14.1935135 8.0893617,14.6216216 C8.0893617,15.0497297 7.74468085,15.4 7.32340426,15.4 C4.37446809,15.4 2,12.987027 2,10.0291892 C2,7.61621622 3.60851064,5.51459459 5.86808511,4.89189189 C6.51914894,2.59567568 8.58723404,1 11,1 C13.412766,1 15.4808511,2.59567568 16.1319149,4.89189189 C18.3914894,5.55351351 20,7.61621622 20,10.0291892 C20,13.0259459 17.587234,15.4 14.6765957,15.4 Z" id="Garden" fill="#BA9CC5" fill-rule="nonzero"></path>
        <g id="Tick-Copy" fill-rule="nonzero">
            <use fill="#84BD00" fill-rule="evenodd" xlink:href="#path-1"></use>
            <path stroke="#470A68" stroke-width="1" d="M14.4558748,18.5195029 L11.037751,15.1274664 C10.3207497,14.4104652 10.3207497,13.285187 11.037751,12.5681857 C11.7547522,11.8511845 12.8800304,11.8511845 13.5970317,12.5681857 L15.7208149,14.691969 L20.3507944,10.037751 C21.0677957,9.32074968 22.1930739,9.32074968 22.9100751,10.037751 C23.6270764,10.7547522 23.6270764,11.8800304 22.9100751,12.5970317 L17.0064297,18.4996998 C16.6815565,18.86067 16.2115123,19.0565217 15.7217391,19.0565217 C15.2559508,19.0565217 14.7892422,18.8524859 14.4558748,18.5195029 Z"></path>
        </g>
    </g>
</svg>