<?xml version="1.0" encoding="UTF-8"?>
<svg width="24px" height="20px" viewBox="0 0 24 20" version="1.1" xmlns="http://www.w3.org/2000/svg" xmlns:xlink="http://www.w3.org/1999/xlink">
    <!-- Generator: Sketch 49.3 (51167) - http://www.bohemiancoding.com/sketch -->
    <title>M_home_tick</title>
    <desc>Created with Sketch.</desc>
    <defs>
        <path d="M14.8086957,18.1652174 C15.0434783,18.4 15.3826087,18.5565217 15.7217391,18.5565217 C16.0608696,18.5565217 16.4,18.426087 16.6347826,18.1652174 L22.5565217,12.2434783 C23.0782609,11.7217391 23.0782609,10.9130435 22.5565217,10.3913043 C22.0347826,9.86956522 21.226087,9.86956522 20.7043478,10.3913043 L15.7217391,15.4 L13.2434783,12.9217391 C12.7217391,12.4 11.9130435,12.4 11.3913043,12.9217391 C10.8695652,13.4434783 10.8695652,14.2521739 11.3913043,14.773913 L14.8086957,18.1652174 Z" id="path-1"></path>
    </defs>
    <g id="home_tick" stroke="none" stroke-width="1" fill="none" fill-rule="evenodd">
        <path d="M20.7090073,7.56556772 L18.7018614,6.17812531 C18.6516272,6.12944702 18.5931688,6.0901043 18.5298203,6.05898575 L11.3834473,1.11891728 C11.3798909,1.11669453 11.3765567,1.11558315 11.3730003,1.1133604 C11.3507728,1.09869023 11.3278784,1.08713192 11.3036504,1.07535133 C11.2874243,1.06668259 11.2711982,1.05690248 11.2538608,1.05001194 C11.2329669,1.04156548 11.2118507,1.03645315 11.19029,1.03000717 C11.1696184,1.02400573 11.1487246,1.01644837 11.1278307,1.01244742 C11.1073814,1.00844646 11.0867098,1.00777964 11.0662604,1.00577916 C11.0440329,1.0035564 11.0220276,1 10.9998001,1 C10.9777949,1 10.9557896,1.0035564 10.9337843,1.00555688 C10.9128905,1.00755736 10.8919966,1.00822419 10.8715473,1.01222514 C10.8508757,1.0162261 10.8306486,1.02356118 10.8101993,1.02956261 C10.7884163,1.03578632 10.7666333,1.04112093 10.7455172,1.04978967 C10.7286242,1.0566802 10.7128427,1.06623804 10.6966166,1.0746845 C10.6728331,1.08668737 10.6490497,1.09846796 10.6263776,1.1133604 C10.6232658,1.11536088 10.6197094,1.11669453 10.6165975,1.11869501 L3.47044671,6.05876348 C3.40709825,6.08988202 3.34863985,6.12922475 3.29818335,6.17790304 L1.29103742,7.56534544 C0.984742065,7.7771738 0.907834812,8.19705183 1.11966317,8.50334719 C1.25036104,8.69272574 1.46085575,8.79408328 1.67490686,8.79408328 C1.80693839,8.79408328 1.94052584,8.7551851 2.05766492,8.67449917 L3.0916896,7.95988409 L3.0916896,18.6617728 C3.0916896,19.0345285 3.39353946,19.3359338 3.76585058,19.3359338 L8.85973355,19.3359338 L13.1400889,19.3359338 L18.2341942,19.3359338 C18.6067276,19.3359338 18.9083552,19.0345285 18.9083552,18.6617728 L18.9083552,7.95988409 L19.9421576,8.67449917 C20.0586298,8.75540738 20.1926618,8.79408328 20.3253602,8.79408328 C20.5389667,8.79408328 20.7492392,8.69250347 20.8799371,8.50334719 C21.09221,8.19727411 21.015525,7.7771738 20.7090073,7.56556772 Z M9.53389453,17.9882787 L9.53389453,13.3498378 L12.4661502,13.3498378 L12.4661502,17.9878341 L9.53389453,17.9878341 L9.53389453,17.9882787 Z M17.5602555,17.9882787 L13.815139,17.9882787 L13.815139,12.6761213 C13.815139,12.3035879 13.5130669,12.0021826 13.1405335,12.0021826 L8.85973355,12.0021826 C8.48742243,12.0021826 8.18557258,12.3035879 8.18557258,12.6761213 L8.18557258,17.9878341 L4.44001155,17.9878341 L4.44001155,7.02788377 L11.0002447,2.49302317 L17.5602555,7.02788377 L17.5602555,17.9882787 Z" id="home-copy" fill="#BA9CC5" fill-rule="nonzero"></path>
        <g id="Tick-Copy" fill-rule="nonzero">
            <use fill="#84BD00" fill-rule="evenodd" xlink:href="#path-1"></use>
            <path stroke="#470A68" stroke-width="1" d="M14.4558748,18.5195029 L11.037751,15.1274664 C10.3207497,14.4104652 10.3207497,13.285187 11.037751,12.5681857 C11.7547522,11.8511845 12.8800304,11.8511845 13.5970317,12.5681857 L15.7208149,14.691969 L20.3507944,10.037751 C21.0677957,9.32074968 22.1930739,9.32074968 22.9100751,10.037751 C23.6270764,10.7547522 23.6270764,11.8800304 22.9100751,12.5970317 L17.0064297,18.4996998 C16.6815565,18.86067 16.2115123,19.0565217 15.7217391,19.0565217 C15.2559508,19.0565217 14.7892422,18.8524859 14.4558748,18.5195029 Z"></path>
        </g>
    </g>
</svg>