<?xml version="1.0" encoding="UTF-8"?>
<svg width="24px" height="20px" viewBox="0 0 24 20" version="1.1" xmlns="http://www.w3.org/2000/svg" xmlns:xlink="http://www.w3.org/1999/xlink">
    <!-- Generator: Sketch 49.3 (51167) - http://www.bohemiancoding.com/sketch -->
    <title>M_home_x</title>
    <desc>Created with Sketch.</desc>
    <defs></defs>
    <g id="home_x" stroke="none" stroke-width="1" fill="none" fill-rule="evenodd">
        <path d="M20.7090073,7.56556772 L18.7018614,6.17812531 C18.6516272,6.12944702 18.5931688,6.0901043 18.5298203,6.05898575 L11.3834473,1.11891728 C11.3798909,1.11669453 11.3765567,1.11558315 11.3730003,1.1133604 C11.3507728,1.09869023 11.3278784,1.08713192 11.3036504,1.07535133 C11.2874243,1.06668259 11.2711982,1.05690248 11.2538608,1.05001194 C11.2329669,1.04156548 11.2118507,1.03645315 11.19029,1.03000717 C11.1696184,1.02400573 11.1487246,1.01644837 11.1278307,1.01244742 C11.1073814,1.00844646 11.0867098,1.00777964 11.0662604,1.00577916 C11.0440329,1.0035564 11.0220276,1 10.9998001,1 C10.9777949,1 10.9557896,1.0035564 10.9337843,1.00555688 C10.9128905,1.00755736 10.8919966,1.00822419 10.8715473,1.01222514 C10.8508757,1.0162261 10.8306486,1.02356118 10.8101993,1.02956261 C10.7884163,1.03578632 10.7666333,1.04112093 10.7455172,1.04978967 C10.7286242,1.0566802 10.7128427,1.06623804 10.6966166,1.0746845 C10.6728331,1.08668737 10.6490497,1.09846796 10.6263776,1.1133604 C10.6232658,1.11536088 10.6197094,1.11669453 10.6165975,1.11869501 L3.47044671,6.05876348 C3.40709825,6.08988202 3.34863985,6.12922475 3.29818335,6.17790304 L1.29103742,7.56534544 C0.984742065,7.7771738 0.907834812,8.19705183 1.11966317,8.50334719 C1.25036104,8.69272574 1.46085575,8.79408328 1.67490686,8.79408328 C1.80693839,8.79408328 1.94052584,8.7551851 2.05766492,8.67449917 L3.0916896,7.95988409 L3.0916896,18.6617728 C3.0916896,19.0345285 3.39353946,19.3359338 3.76585058,19.3359338 L8.85973355,19.3359338 L13.1400889,19.3359338 L18.2341942,19.3359338 C18.6067276,19.3359338 18.9083552,19.0345285 18.9083552,18.6617728 L18.9083552,7.95988409 L19.9421576,8.67449917 C20.0586298,8.75540738 20.1926618,8.79408328 20.3253602,8.79408328 C20.5389667,8.79408328 20.7492392,8.69250347 20.8799371,8.50334719 C21.09221,8.19727411 21.015525,7.7771738 20.7090073,7.56556772 Z M9.53389453,17.9882787 L9.53389453,13.3498378 L12.4661502,13.3498378 L12.4661502,17.9878341 L9.53389453,17.9878341 L9.53389453,17.9882787 Z M17.5602555,17.9882787 L13.815139,17.9882787 L13.815139,12.6761213 C13.815139,12.3035879 13.5130669,12.0021826 13.1405335,12.0021826 L8.85973355,12.0021826 C8.48742243,12.0021826 8.18557258,12.3035879 8.18557258,12.6761213 L8.18557258,17.9878341 L4.44001155,17.9878341 L4.44001155,7.02788377 L11.0002447,2.49302317 L17.5602555,7.02788377 L17.5602555,17.9882787 Z" id="home-copy" fill="#BA9CC5" fill-rule="nonzero"></path>
        <path d="M21.6578947,18.9736842 C22,18.9736842 22.3421053,18.8421053 22.5789474,18.5789474 C23.1052632,18.0526316 23.1052632,17.2368421 22.5789474,16.7105263 L19.8684211,14 L22.6052632,11.2631579 C23.1315789,10.7368421 23.1315789,9.92105263 22.6052632,9.39473684 C22.0789474,8.86842105 21.2631579,8.86842105 20.7368421,9.39473684 L18,12.1315789 L15.2631579,9.39473684 C14.7368421,8.86842105 13.9210526,8.86842105 13.3947368,9.39473684 C12.8684211,9.92105263 12.8684211,10.7368421 13.3947368,11.2631579 L16.1315789,14 L13.3947368,16.7368421 C12.8684211,17.2631579 12.8684211,18.0789474 13.3947368,18.6052632 C13.6578947,18.8684211 14,19 14.3157895,19 C14.6315789,19 15,18.8684211 15.2368421,18.6052632 L18,15.8684211 L20.7368421,18.6052632 C21,18.8421053 21.3157895,18.9736842 21.6578947,18.9736842 Z" id="x-copy" stroke="#470A68" fill="#DF1995" fill-rule="nonzero"></path>
    </g>
</svg>