<?xml version="1.0" encoding="UTF-8"?>
<svg width="22px" height="22px" viewBox="0 0 22 22" version="1.1" xmlns="http://www.w3.org/2000/svg" xmlns:xlink="http://www.w3.org/1999/xlink">
    <!-- Generator: Sketch 49.3 (51167) - http://www.bohemiancoding.com/sketch -->
    <title>M_male</title>
    <desc>Created with Sketch.</desc>
    <defs></defs>
    <g id="male" stroke="none" stroke-width="1" fill="none" fill-rule="evenodd">
        <path d="M4.06202865,7.98169218 C1.31265712,10.7310253 1.31265712,15.188667 4.06202865,17.9380002 C6.81140018,20.6873333 11.2691042,20.6873333 14.0184757,17.9380002 C16.4724628,15.4840474 16.7341765,11.6704267 14.8075962,8.92415451 L17.5493153,6.18247374 L17.5493153,7.36307693 C17.5493153,8.03923779 18.0975366,8.58745151 18.7737069,8.58745151 C19.4498772,8.58745151 19.9980986,8.03923779 19.9980986,7.36307693 L19.9980986,3.28652177 C20.0164645,2.95134923 19.9019839,2.61036091 19.6457799,2.35416052 C19.389576,2.09796014 19.0485829,1.98378721 18.7134057,2.00184674 L14.6374057,2.00184674 C13.9612354,2.00184674 13.413014,2.55006046 13.413014,3.22622132 C13.413014,3.90238218 13.9612354,4.4505959 14.6374057,4.4505959 L15.8180254,4.4505959 L13.0763063,7.19227667 C10.3296897,5.26602937 6.51601568,5.52773943 4.06202865,7.98169218 Z M12.2868798,16.2064284 C10.4965131,17.9967701 7.58368523,17.996464 5.79362459,16.2064284 C4.00325785,14.4160867 4.00325785,11.5032996 5.79362459,9.71326393 C7.58368523,7.9232283 10.4968191,7.9229222 12.2868798,9.71326393 C14.0772465,11.5032996 14.0772465,14.4160867 12.2868798,16.2064284 Z" fill="#00BFB3" fill-rule="nonzero"></path>
    </g>
</svg>