<?xml version="1.0" encoding="UTF-8"?>
<svg width="21px" height="20px" viewBox="0 0 21 20" version="1.1" xmlns="http://www.w3.org/2000/svg" xmlns:xlink="http://www.w3.org/1999/xlink">
    <!-- Generator: Sketch 49.1 (51147) - http://www.bohemiancoding.com/sketch -->
    <title>Icon Copy 2</title>
    <desc>Created with Sketch.</desc>
    <defs></defs>
    <g id="Components" stroke="none" stroke-width="1" fill="none" fill-rule="evenodd">
        <g id="Header" transform="translate(-901.000000, -1071.000000)" fill="#FFFFFF" fill-rule="nonzero">
            <g id="Nav-Copy-4" transform="translate(666.000000, 1047.000000)">
                <g id="Group-3">
                    <g id="Group-4-Copy" transform="translate(235.000000, 24.000000)">
                        <path d="M19.793818,17.2037413 L15.1327041,12.5422861 C15.9246616,11.2814692 16.3843042,9.79125774 16.3843042,8.19198143 C16.3843042,3.66741197 12.7163802,0 8.19198143,0 C3.66758265,0 0,3.66741197 0,8.19198143 C0,12.7167216 3.66741197,16.3837922 8.19198143,16.3837922 C9.93241052,16.3837922 11.5444879,15.8396627 12.8710167,14.9150864 L17.4766594,19.5210705 C17.7966854,19.8407551 18.2162181,20 18.6352387,20 C19.0547714,20 19.473792,19.8407551 19.79433,19.5210705 C20.4338698,18.8808479 20.4338698,17.8437932 19.793818,17.2037413 Z M8.19198143,13.7297104 C5.13389885,13.7297104 2.65459387,11.250576 2.65459387,8.19232279 C2.65459387,5.13406954 5.13389885,2.65476455 8.19198143,2.65476455 C11.2502347,2.65476455 13.729369,5.13406954 13.729369,8.19232279 C13.729369,11.250576 11.2502347,13.7297104 8.19198143,13.7297104 Z" id="Icon-Copy-2"></path>
                    </g>
                </g>
            </g>
        </g>
    </g>
</svg>