<?xml version="1.0" encoding="UTF-8"?>
<svg width="16px" height="16px" viewBox="0 0 16 16" version="1.1" xmlns="http://www.w3.org/2000/svg" xmlns:xlink="http://www.w3.org/1999/xlink">
    <!-- Generator: Sketch 49.1 (51147) - http://www.bohemiancoding.com/sketch -->
    <title>Icon</title>
    <desc>Created with Sketch.</desc>
    <defs></defs>
    <g id="Components" stroke="none" stroke-width="1" fill="none" fill-rule="evenodd">
        <g id="Header" transform="translate(-1221.000000, -439.000000)" fill="#1D142C" fill-rule="nonzero">
            <g id="Nav-Copy" transform="translate(329.000000, 407.000000)">
                <g id="Group-3">
                    <g id="Group-5" transform="translate(728.000000, 15.000000)">
                        <path d="M179.621107,30.7629931 L175.942597,27.0338289 C176.567603,26.0251754 176.930349,24.8330062 176.930349,23.5535851 C176.930349,19.9339296 174.035655,17 170.46504,17 C166.894424,17 164,19.9339296 164,23.5535851 C164,27.1733773 166.894289,30.1070337 170.46504,30.1070337 C171.838571,30.1070337 173.110808,29.6717302 174.157693,28.9320692 L177.792426,32.6168564 C178.044988,32.8726041 178.376079,33 178.706766,33 C179.037858,33 179.368545,32.8726041 179.621511,32.6168564 C180.12623,32.1046784 180.12623,31.2750346 179.621107,30.7629931 Z M170.46504,27.9837683 C168.051628,27.9837683 166.094982,26.0004608 166.094982,23.5538582 C166.094982,21.1072556 168.051628,19.1238116 170.46504,19.1238116 C172.878586,19.1238116 174.835097,21.1072556 174.835097,23.5538582 C174.835097,26.0004608 172.878586,27.9837683 170.46504,27.9837683 Z" id="Icon"></path>
                    </g>
                </g>
            </g>
        </g>
    </g>
</svg>